<mxfile host="app.diagrams.net" agent="Mozilla/5.0 (Windows NT 10.0; Win64; x64) AppleWebKit/537.36 (KHTML, like Gecko) Chrome/135.0.0.0 Safari/537.36" version="26.2.14">
  <diagram name="Página-1" id="scErUevI-4GT9AYKOMYy">
    <mxGraphModel dx="2680" dy="1925" grid="1" gridSize="10" guides="1" tooltips="1" connect="1" arrows="1" fold="1" page="1" pageScale="1" pageWidth="827" pageHeight="1169" math="0" shadow="0">
      <root>
        <mxCell id="0" />
        <mxCell id="1" parent="0" />
        <mxCell id="3wIR6ko056dWElmyYk91-91" value="" style="rounded=0;whiteSpace=wrap;html=1;" vertex="1" parent="1">
          <mxGeometry x="1020" y="-1000" width="750" height="600" as="geometry" />
        </mxCell>
        <mxCell id="y31MND58anYvLnVCojib-1" value="Docente" style="shape=umlActor;verticalLabelPosition=bottom;verticalAlign=top;html=1;outlineConnect=0;" parent="1" vertex="1">
          <mxGeometry x="295" y="-1090" width="30" height="60" as="geometry" />
        </mxCell>
        <mxCell id="3wIR6ko056dWElmyYk91-3" value="" style="rounded=0;whiteSpace=wrap;html=1;" vertex="1" parent="1">
          <mxGeometry x="-110" y="-940" width="840" height="500" as="geometry" />
        </mxCell>
        <mxCell id="3wIR6ko056dWElmyYk91-5" value="Sistema" style="image;points=[];aspect=fixed;html=1;align=center;shadow=0;dashed=0;image=img/lib/allied_telesis/computer_and_terminals/Personal_Computer.svg;" vertex="1" parent="1">
          <mxGeometry x="772.2" y="-590.9000000000001" width="45.6" height="61.800000000000004" as="geometry" />
        </mxCell>
        <mxCell id="3wIR6ko056dWElmyYk91-6" value="Administrador" style="shape=umlActor;verticalLabelPosition=bottom;verticalAlign=top;html=1;outlineConnect=0;" vertex="1" parent="1">
          <mxGeometry x="80" y="-400" width="30" height="60" as="geometry" />
        </mxCell>
        <mxCell id="3wIR6ko056dWElmyYk91-7" value="Iniciar sesión" style="ellipse;whiteSpace=wrap;html=1;" vertex="1" parent="1">
          <mxGeometry x="260" y="-680" width="100" height="68.2" as="geometry" />
        </mxCell>
        <mxCell id="3wIR6ko056dWElmyYk91-10" value="" style="endArrow=none;html=1;rounded=0;entryX=0.5;entryY=0.5;entryDx=0;entryDy=0;entryPerimeter=0;exitX=0.25;exitY=1;exitDx=0;exitDy=0;" edge="1" parent="1" source="3wIR6ko056dWElmyYk91-3" target="3wIR6ko056dWElmyYk91-6">
          <mxGeometry width="50" height="50" relative="1" as="geometry">
            <mxPoint x="140" y="-480" as="sourcePoint" />
            <mxPoint x="190" y="-530" as="targetPoint" />
          </mxGeometry>
        </mxCell>
        <mxCell id="3wIR6ko056dWElmyYk91-13" value="" style="endArrow=none;html=1;rounded=0;entryX=0;entryY=0.5;entryDx=0;entryDy=0;exitX=0.25;exitY=1;exitDx=0;exitDy=0;" edge="1" parent="1" source="3wIR6ko056dWElmyYk91-3" target="3wIR6ko056dWElmyYk91-7">
          <mxGeometry width="50" height="50" relative="1" as="geometry">
            <mxPoint x="80" y="-470" as="sourcePoint" />
            <mxPoint x="130" y="-520" as="targetPoint" />
          </mxGeometry>
        </mxCell>
        <mxCell id="3wIR6ko056dWElmyYk91-14" value="Crear perfiles de alumno y docente" style="ellipse;whiteSpace=wrap;html=1;" vertex="1" parent="1">
          <mxGeometry x="250" y="-551.8" width="120" height="80" as="geometry" />
        </mxCell>
        <mxCell id="3wIR6ko056dWElmyYk91-15" value="" style="endArrow=none;html=1;rounded=0;entryX=0;entryY=0.5;entryDx=0;entryDy=0;exitX=0.25;exitY=1;exitDx=0;exitDy=0;" edge="1" parent="1" source="3wIR6ko056dWElmyYk91-3" target="3wIR6ko056dWElmyYk91-14">
          <mxGeometry width="50" height="50" relative="1" as="geometry">
            <mxPoint x="130" y="-400" as="sourcePoint" />
            <mxPoint x="220" y="-490" as="targetPoint" />
          </mxGeometry>
        </mxCell>
        <mxCell id="3wIR6ko056dWElmyYk91-16" value="&amp;lt;&amp;lt;include&amp;gt;&amp;gt;" style="html=1;verticalAlign=bottom;labelBackgroundColor=none;endArrow=open;endFill=0;dashed=1;rounded=0;exitX=0.5;exitY=0;exitDx=0;exitDy=0;entryX=0.5;entryY=1;entryDx=0;entryDy=0;" edge="1" parent="1" source="3wIR6ko056dWElmyYk91-14" target="3wIR6ko056dWElmyYk91-7">
          <mxGeometry width="160" relative="1" as="geometry">
            <mxPoint x="300" y="-640" as="sourcePoint" />
            <mxPoint x="460" y="-640" as="targetPoint" />
          </mxGeometry>
        </mxCell>
        <mxCell id="3wIR6ko056dWElmyYk91-17" value="Crear aula virtual" style="ellipse;whiteSpace=wrap;html=1;" vertex="1" parent="1">
          <mxGeometry x="30" y="-870" width="100" height="70" as="geometry" />
        </mxCell>
        <mxCell id="3wIR6ko056dWElmyYk91-18" value="Modificar aula virtual" style="ellipse;whiteSpace=wrap;html=1;" vertex="1" parent="1">
          <mxGeometry x="23" y="-700" width="107" height="60" as="geometry" />
        </mxCell>
        <mxCell id="3wIR6ko056dWElmyYk91-19" value="Subir material" style="ellipse;whiteSpace=wrap;html=1;" vertex="1" parent="1">
          <mxGeometry x="180" y="-800" width="100" height="61.8" as="geometry" />
        </mxCell>
        <mxCell id="3wIR6ko056dWElmyYk91-25" value="Eliminar aula virtual" style="ellipse;whiteSpace=wrap;html=1;" vertex="1" parent="1">
          <mxGeometry x="-100" y="-750" width="100" height="60" as="geometry" />
        </mxCell>
        <mxCell id="3wIR6ko056dWElmyYk91-31" value="Asignar tareas" style="ellipse;whiteSpace=wrap;html=1;" vertex="1" parent="1">
          <mxGeometry x="370" y="-870" width="100" height="55" as="geometry" />
        </mxCell>
        <mxCell id="3wIR6ko056dWElmyYk91-35" value="Calificar&lt;div&gt;tareas&lt;/div&gt;" style="ellipse;whiteSpace=wrap;html=1;" vertex="1" parent="1">
          <mxGeometry x="490" y="-910" width="100" height="60" as="geometry" />
        </mxCell>
        <mxCell id="3wIR6ko056dWElmyYk91-37" value="" style="endArrow=none;html=1;rounded=0;exitX=1;exitY=0;exitDx=0;exitDy=0;entryX=0.5;entryY=0;entryDx=0;entryDy=0;" edge="1" parent="1" source="3wIR6ko056dWElmyYk91-17" target="3wIR6ko056dWElmyYk91-3">
          <mxGeometry width="50" height="50" relative="1" as="geometry">
            <mxPoint x="250" y="-850" as="sourcePoint" />
            <mxPoint x="300" y="-900" as="targetPoint" />
          </mxGeometry>
        </mxCell>
        <mxCell id="3wIR6ko056dWElmyYk91-38" value="" style="endArrow=none;html=1;rounded=0;entryX=0.5;entryY=0;entryDx=0;entryDy=0;exitX=0.5;exitY=0;exitDx=0;exitDy=0;" edge="1" parent="1" source="3wIR6ko056dWElmyYk91-19" target="3wIR6ko056dWElmyYk91-3">
          <mxGeometry width="50" height="50" relative="1" as="geometry">
            <mxPoint x="290" y="-840" as="sourcePoint" />
            <mxPoint x="340" y="-890" as="targetPoint" />
          </mxGeometry>
        </mxCell>
        <mxCell id="3wIR6ko056dWElmyYk91-39" value="" style="endArrow=none;html=1;rounded=0;entryX=0.5;entryY=0;entryDx=0;entryDy=0;exitX=0.5;exitY=0;exitDx=0;exitDy=0;" edge="1" parent="1" source="3wIR6ko056dWElmyYk91-7" target="3wIR6ko056dWElmyYk91-3">
          <mxGeometry width="50" height="50" relative="1" as="geometry">
            <mxPoint x="330" y="-780" as="sourcePoint" />
            <mxPoint x="380" y="-830" as="targetPoint" />
          </mxGeometry>
        </mxCell>
        <mxCell id="3wIR6ko056dWElmyYk91-40" value="" style="endArrow=none;html=1;rounded=0;exitX=0.5;exitY=0;exitDx=0;exitDy=0;entryX=0;entryY=0;entryDx=0;entryDy=0;" edge="1" parent="1" source="3wIR6ko056dWElmyYk91-3" target="3wIR6ko056dWElmyYk91-31">
          <mxGeometry width="50" height="50" relative="1" as="geometry">
            <mxPoint x="310" y="-930" as="sourcePoint" />
            <mxPoint x="420" y="-860" as="targetPoint" />
          </mxGeometry>
        </mxCell>
        <mxCell id="3wIR6ko056dWElmyYk91-41" value="" style="endArrow=none;html=1;rounded=0;exitX=0.5;exitY=0;exitDx=0;exitDy=0;entryX=0;entryY=0;entryDx=0;entryDy=0;" edge="1" parent="1" source="3wIR6ko056dWElmyYk91-3" target="3wIR6ko056dWElmyYk91-35">
          <mxGeometry width="50" height="50" relative="1" as="geometry">
            <mxPoint x="380" y="-830" as="sourcePoint" />
            <mxPoint x="430" y="-880" as="targetPoint" />
          </mxGeometry>
        </mxCell>
        <mxCell id="3wIR6ko056dWElmyYk91-42" value="" style="endArrow=none;html=1;rounded=0;entryX=0.5;entryY=0.5;entryDx=0;entryDy=0;entryPerimeter=0;exitX=0.5;exitY=0;exitDx=0;exitDy=0;" edge="1" parent="1" source="3wIR6ko056dWElmyYk91-3" target="y31MND58anYvLnVCojib-1">
          <mxGeometry width="50" height="50" relative="1" as="geometry">
            <mxPoint x="280" y="-950" as="sourcePoint" />
            <mxPoint x="330" y="-1000" as="targetPoint" />
          </mxGeometry>
        </mxCell>
        <mxCell id="3wIR6ko056dWElmyYk91-46" value="&amp;lt;&amp;lt;include&amp;gt;&amp;gt;" style="html=1;verticalAlign=bottom;labelBackgroundColor=none;endArrow=open;endFill=0;dashed=1;rounded=0;exitX=0.5;exitY=1;exitDx=0;exitDy=0;entryX=0;entryY=0.5;entryDx=0;entryDy=0;" edge="1" parent="1" source="3wIR6ko056dWElmyYk91-17" target="3wIR6ko056dWElmyYk91-7">
          <mxGeometry width="160" relative="1" as="geometry">
            <mxPoint y="-720" as="sourcePoint" />
            <mxPoint x="160" y="-720" as="targetPoint" />
          </mxGeometry>
        </mxCell>
        <mxCell id="3wIR6ko056dWElmyYk91-47" value="&amp;lt;&amp;lt;include&amp;gt;&amp;gt;" style="html=1;verticalAlign=bottom;labelBackgroundColor=none;endArrow=open;endFill=0;dashed=1;rounded=0;entryX=1;entryY=1;entryDx=0;entryDy=0;exitX=0;exitY=0;exitDx=0;exitDy=0;" edge="1" parent="1" source="3wIR6ko056dWElmyYk91-19" target="3wIR6ko056dWElmyYk91-17">
          <mxGeometry width="160" relative="1" as="geometry">
            <mxPoint x="20" y="-700" as="sourcePoint" />
            <mxPoint x="180" y="-700" as="targetPoint" />
          </mxGeometry>
        </mxCell>
        <mxCell id="3wIR6ko056dWElmyYk91-48" value="&amp;lt;&amp;lt;include&amp;gt;&amp;gt;" style="html=1;verticalAlign=bottom;labelBackgroundColor=none;endArrow=open;endFill=0;dashed=1;rounded=0;exitX=0;exitY=0.5;exitDx=0;exitDy=0;entryX=1;entryY=0.5;entryDx=0;entryDy=0;" edge="1" parent="1" source="3wIR6ko056dWElmyYk91-31" target="3wIR6ko056dWElmyYk91-17">
          <mxGeometry width="160" relative="1" as="geometry">
            <mxPoint x="450" y="-680" as="sourcePoint" />
            <mxPoint x="610" y="-680" as="targetPoint" />
          </mxGeometry>
        </mxCell>
        <mxCell id="3wIR6ko056dWElmyYk91-51" value="&lt;br&gt;Alumno" style="shape=umlActor;verticalLabelPosition=bottom;verticalAlign=top;html=1;outlineConnect=0;" vertex="1" parent="1">
          <mxGeometry x="780" y="-720" width="30" height="60" as="geometry" />
        </mxCell>
        <mxCell id="3wIR6ko056dWElmyYk91-52" value="Ver material" style="ellipse;whiteSpace=wrap;html=1;" vertex="1" parent="1">
          <mxGeometry x="530" y="-640" width="90" height="60" as="geometry" />
        </mxCell>
        <mxCell id="3wIR6ko056dWElmyYk91-53" value="Realizar consultas" style="ellipse;whiteSpace=wrap;html=1;" vertex="1" parent="1">
          <mxGeometry x="480" y="-771.8" width="80" height="51.8" as="geometry" />
        </mxCell>
        <mxCell id="3wIR6ko056dWElmyYk91-54" value="Subir tareas resueltas" style="ellipse;whiteSpace=wrap;html=1;" vertex="1" parent="1">
          <mxGeometry x="590" y="-789" width="90" height="59" as="geometry" />
        </mxCell>
        <mxCell id="3wIR6ko056dWElmyYk91-55" value="&amp;lt;&amp;lt;include&amp;gt;&amp;gt;" style="html=1;verticalAlign=bottom;labelBackgroundColor=none;endArrow=open;endFill=0;dashed=1;rounded=0;exitX=1;exitY=1;exitDx=0;exitDy=0;entryX=0.5;entryY=0;entryDx=0;entryDy=0;" edge="1" parent="1" source="3wIR6ko056dWElmyYk91-35" target="3wIR6ko056dWElmyYk91-54">
          <mxGeometry width="160" relative="1" as="geometry">
            <mxPoint x="640" y="-780" as="sourcePoint" />
            <mxPoint x="800" y="-780" as="targetPoint" />
          </mxGeometry>
        </mxCell>
        <mxCell id="3wIR6ko056dWElmyYk91-56" value="&amp;lt;&amp;lt;include&amp;gt;&amp;gt;" style="html=1;verticalAlign=bottom;labelBackgroundColor=none;endArrow=open;endFill=0;dashed=1;rounded=0;exitX=0;exitY=0;exitDx=0;exitDy=0;entryX=1;entryY=0.5;entryDx=0;entryDy=0;" edge="1" parent="1" source="3wIR6ko056dWElmyYk91-53" target="3wIR6ko056dWElmyYk91-19">
          <mxGeometry width="160" relative="1" as="geometry">
            <mxPoint x="450" y="-680" as="sourcePoint" />
            <mxPoint x="610" y="-680" as="targetPoint" />
          </mxGeometry>
        </mxCell>
        <mxCell id="3wIR6ko056dWElmyYk91-57" value="&amp;lt;&amp;lt;include&amp;gt;&amp;gt;" style="html=1;verticalAlign=bottom;labelBackgroundColor=none;endArrow=open;endFill=0;dashed=1;rounded=0;exitX=0;exitY=0;exitDx=0;exitDy=0;entryX=1;entryY=1;entryDx=0;entryDy=0;" edge="1" parent="1" source="3wIR6ko056dWElmyYk91-53" target="3wIR6ko056dWElmyYk91-31">
          <mxGeometry width="160" relative="1" as="geometry">
            <mxPoint x="440" y="-720" as="sourcePoint" />
            <mxPoint x="600" y="-720" as="targetPoint" />
          </mxGeometry>
        </mxCell>
        <mxCell id="3wIR6ko056dWElmyYk91-58" value="&amp;lt;&amp;lt;include&amp;gt;&amp;gt;" style="html=1;verticalAlign=bottom;labelBackgroundColor=none;endArrow=open;endFill=0;dashed=1;rounded=0;exitX=0;exitY=0.5;exitDx=0;exitDy=0;entryX=1;entryY=0.5;entryDx=0;entryDy=0;" edge="1" parent="1" source="3wIR6ko056dWElmyYk91-52" target="3wIR6ko056dWElmyYk91-19">
          <mxGeometry width="160" relative="1" as="geometry">
            <mxPoint x="540" y="-590" as="sourcePoint" />
            <mxPoint x="700" y="-590" as="targetPoint" />
          </mxGeometry>
        </mxCell>
        <mxCell id="3wIR6ko056dWElmyYk91-59" value="" style="endArrow=none;html=1;rounded=0;entryX=1;entryY=0.5;entryDx=0;entryDy=0;exitX=1;exitY=0.5;exitDx=0;exitDy=0;" edge="1" parent="1" source="3wIR6ko056dWElmyYk91-54" target="3wIR6ko056dWElmyYk91-3">
          <mxGeometry width="50" height="50" relative="1" as="geometry">
            <mxPoint x="650" y="-600" as="sourcePoint" />
            <mxPoint x="700" y="-650" as="targetPoint" />
          </mxGeometry>
        </mxCell>
        <mxCell id="3wIR6ko056dWElmyYk91-61" value="" style="endArrow=none;html=1;rounded=0;exitX=1;exitY=0.5;exitDx=0;exitDy=0;entryX=1;entryY=0.5;entryDx=0;entryDy=0;" edge="1" parent="1" source="3wIR6ko056dWElmyYk91-52" target="3wIR6ko056dWElmyYk91-3">
          <mxGeometry width="50" height="50" relative="1" as="geometry">
            <mxPoint x="680" y="-630" as="sourcePoint" />
            <mxPoint x="730" y="-680" as="targetPoint" />
          </mxGeometry>
        </mxCell>
        <mxCell id="3wIR6ko056dWElmyYk91-62" value="" style="endArrow=none;html=1;rounded=0;entryX=0.5;entryY=0.5;entryDx=0;entryDy=0;entryPerimeter=0;exitX=1;exitY=0.5;exitDx=0;exitDy=0;" edge="1" parent="1" source="3wIR6ko056dWElmyYk91-3" target="3wIR6ko056dWElmyYk91-51">
          <mxGeometry width="50" height="50" relative="1" as="geometry">
            <mxPoint x="670" y="-570" as="sourcePoint" />
            <mxPoint x="720" y="-620" as="targetPoint" />
          </mxGeometry>
        </mxCell>
        <mxCell id="3wIR6ko056dWElmyYk91-63" value="Enviar notificaciones por email" style="ellipse;whiteSpace=wrap;html=1;" vertex="1" parent="1">
          <mxGeometry x="520" y="-530" width="100" height="70" as="geometry" />
        </mxCell>
        <mxCell id="3wIR6ko056dWElmyYk91-64" value="" style="endArrow=none;html=1;rounded=0;exitX=1;exitY=0.5;exitDx=0;exitDy=0;entryX=1;entryY=0.75;entryDx=0;entryDy=0;" edge="1" parent="1" source="3wIR6ko056dWElmyYk91-63" target="3wIR6ko056dWElmyYk91-3">
          <mxGeometry width="50" height="50" relative="1" as="geometry">
            <mxPoint x="670" y="-460" as="sourcePoint" />
            <mxPoint x="720" y="-510" as="targetPoint" />
          </mxGeometry>
        </mxCell>
        <mxCell id="3wIR6ko056dWElmyYk91-65" value="&amp;lt;&amp;lt;extend&amp;gt;&amp;gt;" style="html=1;verticalAlign=bottom;labelBackgroundColor=none;endArrow=open;endFill=0;dashed=1;rounded=0;exitX=0.5;exitY=0;exitDx=0;exitDy=0;entryX=0.5;entryY=1;entryDx=0;entryDy=0;" edge="1" parent="1" source="3wIR6ko056dWElmyYk91-52" target="3wIR6ko056dWElmyYk91-53">
          <mxGeometry width="160" relative="1" as="geometry">
            <mxPoint x="570" y="-670" as="sourcePoint" />
            <mxPoint x="730" y="-670" as="targetPoint" />
          </mxGeometry>
        </mxCell>
        <mxCell id="3wIR6ko056dWElmyYk91-67" value="" style="endArrow=none;html=1;rounded=0;entryX=1;entryY=0.5;entryDx=0;entryDy=0;exitX=1;exitY=0.5;exitDx=0;exitDy=0;" edge="1" parent="1" source="3wIR6ko056dWElmyYk91-7" target="3wIR6ko056dWElmyYk91-3">
          <mxGeometry width="50" height="50" relative="1" as="geometry">
            <mxPoint x="610" y="-640" as="sourcePoint" />
            <mxPoint x="660" y="-690" as="targetPoint" />
          </mxGeometry>
        </mxCell>
        <mxCell id="3wIR6ko056dWElmyYk91-68" value="&amp;lt;&amp;lt;include&amp;gt;&amp;gt;" style="html=1;verticalAlign=bottom;labelBackgroundColor=none;endArrow=open;endFill=0;dashed=1;rounded=0;exitX=0;exitY=0.5;exitDx=0;exitDy=0;entryX=0.947;entryY=0.725;entryDx=0;entryDy=0;entryPerimeter=0;" edge="1" parent="1" source="3wIR6ko056dWElmyYk91-52" target="3wIR6ko056dWElmyYk91-7">
          <mxGeometry width="160" relative="1" as="geometry">
            <mxPoint x="480" y="-630" as="sourcePoint" />
            <mxPoint x="640" y="-630" as="targetPoint" />
          </mxGeometry>
        </mxCell>
        <mxCell id="3wIR6ko056dWElmyYk91-69" value="&amp;lt;&amp;lt;include&amp;gt;&amp;gt;" style="html=1;verticalAlign=bottom;labelBackgroundColor=none;endArrow=open;endFill=0;dashed=1;rounded=0;exitX=0;exitY=1;exitDx=0;exitDy=0;entryX=1;entryY=0.5;entryDx=0;entryDy=0;" edge="1" parent="1" source="3wIR6ko056dWElmyYk91-54" target="3wIR6ko056dWElmyYk91-7">
          <mxGeometry width="160" relative="1" as="geometry">
            <mxPoint x="560" y="-690" as="sourcePoint" />
            <mxPoint x="720" y="-690" as="targetPoint" />
          </mxGeometry>
        </mxCell>
        <mxCell id="3wIR6ko056dWElmyYk91-73" value="Secretario" style="shape=umlActor;verticalLabelPosition=bottom;verticalAlign=top;html=1;outlineConnect=0;" vertex="1" parent="1">
          <mxGeometry x="930" y="-880" width="30" height="60" as="geometry" />
        </mxCell>
        <mxCell id="3wIR6ko056dWElmyYk91-74" value="Paciente" style="shape=umlActor;verticalLabelPosition=bottom;verticalAlign=top;html=1;outlineConnect=0;" vertex="1" parent="1">
          <mxGeometry x="1211" y="-1131.8" width="30" height="60" as="geometry" />
        </mxCell>
        <mxCell id="3wIR6ko056dWElmyYk91-75" value="Iniciar sesión" style="ellipse;whiteSpace=wrap;html=1;" vertex="1" parent="1">
          <mxGeometry x="1105" y="-875" width="120" height="80" as="geometry" />
        </mxCell>
        <mxCell id="3wIR6ko056dWElmyYk91-76" value="Registrarse" style="ellipse;whiteSpace=wrap;html=1;" vertex="1" parent="1">
          <mxGeometry x="1044.4" y="-980" width="120" height="80" as="geometry" />
        </mxCell>
        <mxCell id="3wIR6ko056dWElmyYk91-77" value="Iniciar solicitud de turno" style="ellipse;whiteSpace=wrap;html=1;" vertex="1" parent="1">
          <mxGeometry x="1276.25" y="-930" width="113.75" height="70" as="geometry" />
        </mxCell>
        <mxCell id="3wIR6ko056dWElmyYk91-78" value="Consultar turnos" style="ellipse;whiteSpace=wrap;html=1;" vertex="1" parent="1">
          <mxGeometry x="1425" y="-990" width="120" height="80" as="geometry" />
        </mxCell>
        <mxCell id="3wIR6ko056dWElmyYk91-79" value="Cancelar turnos" style="ellipse;whiteSpace=wrap;html=1;" vertex="1" parent="1">
          <mxGeometry x="1640" y="-960" width="120" height="80" as="geometry" />
        </mxCell>
        <mxCell id="3wIR6ko056dWElmyYk91-80" value="Registrar disponibilidad de doctores" style="ellipse;whiteSpace=wrap;html=1;" vertex="1" parent="1">
          <mxGeometry x="1030" y="-640.9" width="100" height="50" as="geometry" />
        </mxCell>
        <mxCell id="3wIR6ko056dWElmyYk91-81" value="Seleccionar especista" style="ellipse;whiteSpace=wrap;html=1;" vertex="1" parent="1">
          <mxGeometry x="1272.5" y="-830" width="117.5" height="70" as="geometry" />
        </mxCell>
        <mxCell id="3wIR6ko056dWElmyYk91-82" value="Seleccionar día y hora" style="ellipse;whiteSpace=wrap;html=1;" vertex="1" parent="1">
          <mxGeometry x="1273.75" y="-750" width="115" height="70" as="geometry" />
        </mxCell>
        <mxCell id="3wIR6ko056dWElmyYk91-83" value="Confirmar datos y reservar turno" style="ellipse;whiteSpace=wrap;html=1;" vertex="1" parent="1">
          <mxGeometry x="1420" y="-760" width="130" height="90" as="geometry" />
        </mxCell>
        <mxCell id="3wIR6ko056dWElmyYk91-84" value="Enviar confirmación de turno solicitado por email" style="ellipse;whiteSpace=wrap;html=1;" vertex="1" parent="1">
          <mxGeometry x="1422.8" y="-631.8" width="120" height="80" as="geometry" />
        </mxCell>
        <mxCell id="3wIR6ko056dWElmyYk91-85" value="" style="image;points=[];aspect=fixed;html=1;align=center;shadow=0;dashed=0;image=img/lib/allied_telesis/computer_and_terminals/Personal_Computer.svg;" vertex="1" parent="1">
          <mxGeometry x="1372.2" y="-369.99999999999994" width="45.6" height="61.800000000000004" as="geometry" />
        </mxCell>
        <mxCell id="3wIR6ko056dWElmyYk91-87" value="Enviar recordatorio por email de turno próximo" style="ellipse;whiteSpace=wrap;html=1;" vertex="1" parent="1">
          <mxGeometry x="1500" y="-551.8" width="120" height="80" as="geometry" />
        </mxCell>
        <mxCell id="3wIR6ko056dWElmyYk91-88" value="Modificar turnos solicitados" style="ellipse;whiteSpace=wrap;html=1;" vertex="1" parent="1">
          <mxGeometry x="1110" y="-580" width="110" height="61.8" as="geometry" />
        </mxCell>
        <mxCell id="3wIR6ko056dWElmyYk91-89" value="Consultar historial de turnos por paciente" style="ellipse;whiteSpace=wrap;html=1;" vertex="1" parent="1">
          <mxGeometry x="1110" y="-720" width="110" height="80" as="geometry" />
        </mxCell>
        <mxCell id="3wIR6ko056dWElmyYk91-92" value="" style="endArrow=none;html=1;rounded=0;exitX=0.5;exitY=0;exitDx=0;exitDy=0;entryX=0.25;entryY=0;entryDx=0;entryDy=0;" edge="1" parent="1" source="3wIR6ko056dWElmyYk91-77" target="3wIR6ko056dWElmyYk91-91">
          <mxGeometry width="50" height="50" relative="1" as="geometry">
            <mxPoint x="1440" y="-940" as="sourcePoint" />
            <mxPoint x="1490" y="-990" as="targetPoint" />
          </mxGeometry>
        </mxCell>
        <mxCell id="3wIR6ko056dWElmyYk91-93" value="" style="endArrow=none;html=1;rounded=0;entryX=0.5;entryY=1;entryDx=0;entryDy=0;exitX=0.5;exitY=0;exitDx=0;exitDy=0;" edge="1" parent="1" source="3wIR6ko056dWElmyYk91-81" target="3wIR6ko056dWElmyYk91-77">
          <mxGeometry width="50" height="50" relative="1" as="geometry">
            <mxPoint x="1220" y="-850" as="sourcePoint" />
            <mxPoint x="1270" y="-900" as="targetPoint" />
          </mxGeometry>
        </mxCell>
        <mxCell id="3wIR6ko056dWElmyYk91-94" value="" style="endArrow=none;html=1;rounded=0;entryX=0.5;entryY=1;entryDx=0;entryDy=0;exitX=0.5;exitY=0;exitDx=0;exitDy=0;" edge="1" parent="1" source="3wIR6ko056dWElmyYk91-82" target="3wIR6ko056dWElmyYk91-81">
          <mxGeometry width="50" height="50" relative="1" as="geometry">
            <mxPoint x="1180" y="-630" as="sourcePoint" />
            <mxPoint x="1230" y="-680" as="targetPoint" />
          </mxGeometry>
        </mxCell>
        <mxCell id="3wIR6ko056dWElmyYk91-95" value="" style="endArrow=none;html=1;rounded=0;entryX=0;entryY=0.5;entryDx=0;entryDy=0;exitX=1;exitY=0.5;exitDx=0;exitDy=0;" edge="1" parent="1" source="3wIR6ko056dWElmyYk91-82" target="3wIR6ko056dWElmyYk91-83">
          <mxGeometry width="50" height="50" relative="1" as="geometry">
            <mxPoint x="1330" y="-580" as="sourcePoint" />
            <mxPoint x="1380" y="-630" as="targetPoint" />
          </mxGeometry>
        </mxCell>
        <mxCell id="3wIR6ko056dWElmyYk91-96" value="" style="endArrow=none;html=1;rounded=0;entryX=0.25;entryY=0;entryDx=0;entryDy=0;exitX=0;exitY=0.5;exitDx=0;exitDy=0;" edge="1" parent="1" source="3wIR6ko056dWElmyYk91-78" target="3wIR6ko056dWElmyYk91-91">
          <mxGeometry width="50" height="50" relative="1" as="geometry">
            <mxPoint x="1540" y="-840" as="sourcePoint" />
            <mxPoint x="1590" y="-890" as="targetPoint" />
          </mxGeometry>
        </mxCell>
        <mxCell id="3wIR6ko056dWElmyYk91-97" value="" style="endArrow=none;html=1;rounded=0;entryX=0.25;entryY=0;entryDx=0;entryDy=0;exitX=1;exitY=0;exitDx=0;exitDy=0;" edge="1" parent="1" source="3wIR6ko056dWElmyYk91-76" target="3wIR6ko056dWElmyYk91-91">
          <mxGeometry width="50" height="50" relative="1" as="geometry">
            <mxPoint x="1250" y="-940" as="sourcePoint" />
            <mxPoint x="1300" y="-990" as="targetPoint" />
          </mxGeometry>
        </mxCell>
        <mxCell id="3wIR6ko056dWElmyYk91-98" value="" style="endArrow=none;html=1;rounded=0;entryX=0.25;entryY=0;entryDx=0;entryDy=0;exitX=1;exitY=0;exitDx=0;exitDy=0;" edge="1" parent="1" source="3wIR6ko056dWElmyYk91-75" target="3wIR6ko056dWElmyYk91-91">
          <mxGeometry width="50" height="50" relative="1" as="geometry">
            <mxPoint x="1220" y="-910" as="sourcePoint" />
            <mxPoint x="1270" y="-960" as="targetPoint" />
          </mxGeometry>
        </mxCell>
        <mxCell id="3wIR6ko056dWElmyYk91-100" value="&amp;lt;&amp;lt;include&amp;gt;&amp;gt;" style="html=1;verticalAlign=bottom;labelBackgroundColor=none;endArrow=open;endFill=0;dashed=1;rounded=0;entryX=0.5;entryY=1;entryDx=0;entryDy=0;exitX=0;exitY=0;exitDx=0;exitDy=0;" edge="1" parent="1" source="3wIR6ko056dWElmyYk91-75" target="3wIR6ko056dWElmyYk91-76">
          <mxGeometry width="160" relative="1" as="geometry">
            <mxPoint x="1070" y="-730" as="sourcePoint" />
            <mxPoint x="1230" y="-730" as="targetPoint" />
          </mxGeometry>
        </mxCell>
        <mxCell id="3wIR6ko056dWElmyYk91-101" value="" style="endArrow=none;html=1;rounded=0;entryX=0.5;entryY=0.5;entryDx=0;entryDy=0;entryPerimeter=0;exitX=0.25;exitY=0;exitDx=0;exitDy=0;" edge="1" parent="1" source="3wIR6ko056dWElmyYk91-91" target="3wIR6ko056dWElmyYk91-74">
          <mxGeometry width="50" height="50" relative="1" as="geometry">
            <mxPoint x="1370" y="-1020" as="sourcePoint" />
            <mxPoint x="1470" y="-1080" as="targetPoint" />
          </mxGeometry>
        </mxCell>
        <mxCell id="3wIR6ko056dWElmyYk91-102" value="&amp;lt;&amp;lt;include&amp;gt;&amp;gt;" style="html=1;verticalAlign=bottom;labelBackgroundColor=none;endArrow=open;endFill=0;dashed=1;rounded=0;exitX=0;exitY=1;exitDx=0;exitDy=0;entryX=1;entryY=0.5;entryDx=0;entryDy=0;" edge="1" parent="1" source="3wIR6ko056dWElmyYk91-77" target="3wIR6ko056dWElmyYk91-75">
          <mxGeometry width="160" relative="1" as="geometry">
            <mxPoint x="1150" y="-720" as="sourcePoint" />
            <mxPoint x="1310" y="-720" as="targetPoint" />
          </mxGeometry>
        </mxCell>
        <mxCell id="3wIR6ko056dWElmyYk91-104" value="&amp;lt;&amp;lt;include&amp;gt;&amp;gt;" style="html=1;verticalAlign=bottom;labelBackgroundColor=none;endArrow=open;endFill=0;dashed=1;rounded=0;entryX=0.5;entryY=0;entryDx=0;entryDy=0;exitX=0.5;exitY=1;exitDx=0;exitDy=0;" edge="1" parent="1" source="3wIR6ko056dWElmyYk91-78" target="3wIR6ko056dWElmyYk91-83">
          <mxGeometry x="0.0017" width="160" relative="1" as="geometry">
            <mxPoint x="1748.5335931288066" y="-769.9957287525378" as="sourcePoint" />
            <mxPoint x="1639.9980592228742" y="-705.0998051533946" as="targetPoint" />
            <mxPoint as="offset" />
          </mxGeometry>
        </mxCell>
        <mxCell id="3wIR6ko056dWElmyYk91-105" value="" style="endArrow=none;html=1;rounded=0;entryX=0;entryY=0.5;entryDx=0;entryDy=0;exitX=0;exitY=0.25;exitDx=0;exitDy=0;" edge="1" parent="1" source="3wIR6ko056dWElmyYk91-91" target="3wIR6ko056dWElmyYk91-75">
          <mxGeometry width="50" height="50" relative="1" as="geometry">
            <mxPoint x="1090" y="-720" as="sourcePoint" />
            <mxPoint x="1140" y="-770" as="targetPoint" />
          </mxGeometry>
        </mxCell>
        <mxCell id="3wIR6ko056dWElmyYk91-109" value="&amp;lt;&amp;lt;extend&amp;gt;&amp;gt;" style="html=1;verticalAlign=bottom;labelBackgroundColor=none;endArrow=open;endFill=0;dashed=1;rounded=0;entryX=0.5;entryY=1;entryDx=0;entryDy=0;exitX=0.5;exitY=0;exitDx=0;exitDy=0;" edge="1" parent="1" source="3wIR6ko056dWElmyYk91-88" target="3wIR6ko056dWElmyYk91-89">
          <mxGeometry width="160" relative="1" as="geometry">
            <mxPoint x="1190" y="-620" as="sourcePoint" />
            <mxPoint x="1350" y="-620" as="targetPoint" />
          </mxGeometry>
        </mxCell>
        <mxCell id="3wIR6ko056dWElmyYk91-110" value="&amp;lt;&amp;lt;extend&amp;gt;&amp;gt;" style="html=1;verticalAlign=bottom;labelBackgroundColor=none;endArrow=open;endFill=0;dashed=1;rounded=0;exitX=1;exitY=1;exitDx=0;exitDy=0;entryX=0;entryY=0.5;entryDx=0;entryDy=0;" edge="1" parent="1" source="3wIR6ko056dWElmyYk91-78" target="3wIR6ko056dWElmyYk91-79">
          <mxGeometry width="160" relative="1" as="geometry">
            <mxPoint x="1470" y="-850" as="sourcePoint" />
            <mxPoint x="1630" y="-850" as="targetPoint" />
          </mxGeometry>
        </mxCell>
        <mxCell id="3wIR6ko056dWElmyYk91-112" value="" style="endArrow=none;html=1;rounded=0;entryX=0;entryY=0.25;entryDx=0;entryDy=0;exitX=0.5;exitY=0.5;exitDx=0;exitDy=0;exitPerimeter=0;" edge="1" parent="1" source="3wIR6ko056dWElmyYk91-73" target="3wIR6ko056dWElmyYk91-91">
          <mxGeometry width="50" height="50" relative="1" as="geometry">
            <mxPoint x="910" y="-520" as="sourcePoint" />
            <mxPoint x="960" y="-570" as="targetPoint" />
          </mxGeometry>
        </mxCell>
        <mxCell id="3wIR6ko056dWElmyYk91-113" value="" style="endArrow=none;html=1;rounded=0;entryX=0.5;entryY=1;entryDx=0;entryDy=0;" edge="1" parent="1" source="3wIR6ko056dWElmyYk91-85" target="3wIR6ko056dWElmyYk91-91">
          <mxGeometry width="50" height="50" relative="1" as="geometry">
            <mxPoint x="1330" y="-320" as="sourcePoint" />
            <mxPoint x="1380" y="-370" as="targetPoint" />
          </mxGeometry>
        </mxCell>
        <mxCell id="3wIR6ko056dWElmyYk91-114" value="" style="endArrow=none;html=1;rounded=0;entryX=0.5;entryY=1;entryDx=0;entryDy=0;exitX=0.5;exitY=1;exitDx=0;exitDy=0;" edge="1" parent="1" source="3wIR6ko056dWElmyYk91-91" target="3wIR6ko056dWElmyYk91-84">
          <mxGeometry width="50" height="50" relative="1" as="geometry">
            <mxPoint x="1410" y="-430" as="sourcePoint" />
            <mxPoint x="1460" y="-480" as="targetPoint" />
          </mxGeometry>
        </mxCell>
        <mxCell id="3wIR6ko056dWElmyYk91-115" value="" style="endArrow=none;html=1;rounded=0;exitX=0.5;exitY=1;exitDx=0;exitDy=0;entryX=0.5;entryY=1;entryDx=0;entryDy=0;" edge="1" parent="1" source="3wIR6ko056dWElmyYk91-91" target="3wIR6ko056dWElmyYk91-87">
          <mxGeometry width="50" height="50" relative="1" as="geometry">
            <mxPoint x="1450" y="-410" as="sourcePoint" />
            <mxPoint x="1500" y="-460" as="targetPoint" />
          </mxGeometry>
        </mxCell>
        <mxCell id="3wIR6ko056dWElmyYk91-135" value="Validar inicio de sesión" style="ellipse;whiteSpace=wrap;html=1;" vertex="1" parent="1">
          <mxGeometry x="410" y="-590" width="100" height="60" as="geometry" />
        </mxCell>
        <mxCell id="3wIR6ko056dWElmyYk91-136" value="&amp;lt;&amp;lt;include&amp;gt;&amp;gt;" style="html=1;verticalAlign=bottom;labelBackgroundColor=none;endArrow=open;endFill=0;dashed=1;rounded=0;entryX=0;entryY=0;entryDx=0;entryDy=0;exitX=0.796;exitY=0.884;exitDx=0;exitDy=0;exitPerimeter=0;" edge="1" parent="1" source="3wIR6ko056dWElmyYk91-7" target="3wIR6ko056dWElmyYk91-135">
          <mxGeometry width="160" relative="1" as="geometry">
            <mxPoint x="350" y="-620" as="sourcePoint" />
            <mxPoint x="510" y="-620" as="targetPoint" />
          </mxGeometry>
        </mxCell>
        <mxCell id="3wIR6ko056dWElmyYk91-137" value="" style="endArrow=none;html=1;rounded=0;exitX=1;exitY=0.5;exitDx=0;exitDy=0;entryX=1;entryY=0.75;entryDx=0;entryDy=0;" edge="1" parent="1" source="3wIR6ko056dWElmyYk91-135" target="3wIR6ko056dWElmyYk91-3">
          <mxGeometry width="50" height="50" relative="1" as="geometry">
            <mxPoint x="670" y="-540" as="sourcePoint" />
            <mxPoint x="720" y="-590" as="targetPoint" />
          </mxGeometry>
        </mxCell>
        <mxCell id="3wIR6ko056dWElmyYk91-138" value="" style="endArrow=none;html=1;rounded=0;exitX=1;exitY=0.75;exitDx=0;exitDy=0;entryX=0.072;entryY=0.409;entryDx=0;entryDy=0;entryPerimeter=0;" edge="1" parent="1" source="3wIR6ko056dWElmyYk91-3" target="3wIR6ko056dWElmyYk91-5">
          <mxGeometry width="50" height="50" relative="1" as="geometry">
            <mxPoint x="740" y="-550" as="sourcePoint" />
            <mxPoint x="790" y="-600" as="targetPoint" />
          </mxGeometry>
        </mxCell>
        <mxCell id="3wIR6ko056dWElmyYk91-140" value="&amp;lt;&amp;lt;extend&amp;gt;&amp;gt;" style="html=1;verticalAlign=bottom;labelBackgroundColor=none;endArrow=open;endFill=0;dashed=1;rounded=0;exitX=0.5;exitY=0;exitDx=0;exitDy=0;entryX=0;entryY=1;entryDx=0;entryDy=0;" edge="1" parent="1" source="3wIR6ko056dWElmyYk91-25" target="3wIR6ko056dWElmyYk91-17">
          <mxGeometry width="160" relative="1" as="geometry">
            <mxPoint x="-30" y="-760" as="sourcePoint" />
            <mxPoint x="130" y="-760" as="targetPoint" />
          </mxGeometry>
        </mxCell>
        <mxCell id="3wIR6ko056dWElmyYk91-141" value="&amp;lt;&amp;lt;extend&amp;gt;&amp;gt;" style="html=1;verticalAlign=bottom;labelBackgroundColor=none;endArrow=open;endFill=0;dashed=1;rounded=0;exitX=0.5;exitY=0;exitDx=0;exitDy=0;entryX=0.438;entryY=0.996;entryDx=0;entryDy=0;entryPerimeter=0;" edge="1" parent="1" source="3wIR6ko056dWElmyYk91-18" target="3wIR6ko056dWElmyYk91-17">
          <mxGeometry width="160" relative="1" as="geometry">
            <mxPoint x="-70" y="-830" as="sourcePoint" />
            <mxPoint x="90" y="-830" as="targetPoint" />
          </mxGeometry>
        </mxCell>
        <mxCell id="3wIR6ko056dWElmyYk91-142" value="Validar credenciales" style="ellipse;whiteSpace=wrap;html=1;" vertex="1" parent="1">
          <mxGeometry x="1276.25" y="-640" width="120" height="80" as="geometry" />
        </mxCell>
        <mxCell id="3wIR6ko056dWElmyYk91-144" value="&amp;lt;&amp;lt;include&amp;gt;&amp;gt;" style="html=1;verticalAlign=bottom;labelBackgroundColor=none;endArrow=open;endFill=0;dashed=1;rounded=0;exitX=0.5;exitY=1;exitDx=0;exitDy=0;entryX=0;entryY=0;entryDx=0;entryDy=0;" edge="1" parent="1" source="3wIR6ko056dWElmyYk91-75" target="3wIR6ko056dWElmyYk91-142">
          <mxGeometry width="160" relative="1" as="geometry">
            <mxPoint x="1211" y="-738.2" as="sourcePoint" />
            <mxPoint x="1371" y="-738.2" as="targetPoint" />
          </mxGeometry>
        </mxCell>
        <mxCell id="3wIR6ko056dWElmyYk91-145" value="" style="endArrow=none;html=1;rounded=0;entryX=0.5;entryY=1;entryDx=0;entryDy=0;exitX=0.5;exitY=1;exitDx=0;exitDy=0;" edge="1" parent="1" source="3wIR6ko056dWElmyYk91-91" target="3wIR6ko056dWElmyYk91-142">
          <mxGeometry width="50" height="50" relative="1" as="geometry">
            <mxPoint x="1520" y="-460" as="sourcePoint" />
            <mxPoint x="1570" y="-510" as="targetPoint" />
          </mxGeometry>
        </mxCell>
        <mxCell id="3wIR6ko056dWElmyYk91-146" value="&amp;lt;&amp;lt;include&amp;gt;&amp;gt;" style="html=1;verticalAlign=bottom;labelBackgroundColor=none;endArrow=open;endFill=0;dashed=1;rounded=0;exitX=0.5;exitY=1;exitDx=0;exitDy=0;entryX=0.5;entryY=0;entryDx=0;entryDy=0;" edge="1" parent="1" source="3wIR6ko056dWElmyYk91-83" target="3wIR6ko056dWElmyYk91-84">
          <mxGeometry width="160" relative="1" as="geometry">
            <mxPoint x="1680" y="-710" as="sourcePoint" />
            <mxPoint x="1840" y="-710" as="targetPoint" />
          </mxGeometry>
        </mxCell>
        <mxCell id="3wIR6ko056dWElmyYk91-147" value="&amp;lt;&amp;lt;include&amp;gt;&amp;gt;" style="html=1;verticalAlign=bottom;labelBackgroundColor=none;endArrow=open;endFill=0;dashed=1;rounded=0;exitX=0.5;exitY=0;exitDx=0;exitDy=0;entryX=0;entryY=1;entryDx=0;entryDy=0;" edge="1" parent="1" source="3wIR6ko056dWElmyYk91-89" target="3wIR6ko056dWElmyYk91-75">
          <mxGeometry width="160" relative="1" as="geometry">
            <mxPoint x="1140" y="-750" as="sourcePoint" />
            <mxPoint x="1300" y="-750" as="targetPoint" />
          </mxGeometry>
        </mxCell>
        <mxCell id="3wIR6ko056dWElmyYk91-148" value="&amp;lt;&amp;lt;include&amp;gt;&amp;gt;" style="html=1;verticalAlign=bottom;labelBackgroundColor=none;endArrow=open;endFill=0;dashed=1;rounded=0;exitX=0.5;exitY=0;exitDx=0;exitDy=0;entryX=0;entryY=0.5;entryDx=0;entryDy=0;" edge="1" parent="1" source="3wIR6ko056dWElmyYk91-80" target="3wIR6ko056dWElmyYk91-75">
          <mxGeometry width="160" relative="1" as="geometry">
            <mxPoint x="1060" y="-590" as="sourcePoint" />
            <mxPoint x="1220" y="-590" as="targetPoint" />
          </mxGeometry>
        </mxCell>
      </root>
    </mxGraphModel>
  </diagram>
</mxfile>
